# xmcd
#
# Track frame offsets:
#	150
#	1491
#	15296
#	32205
#	53045
#	66023
#	73802
#	86573
#	97482
#	119770
#
# Disc length: 1801 seconds
#
# Revision: 1
# Processed by: cddbd v1.5.1PL0 Copyright (c) Steve Scherf et al.
# Submitted via: EasyCDDAExtractor 7.0.5.1
#
DISCID=8807070a
DTITLE=Wicked Sideburns - From Dead Eyes
DYEAR=2005
DGENRE=Alternative
TTITLE0=Invisible Hands Always Move The Strings
TTITLE1=Rumours
TTITLE2=Deep Black
TTITLE3=Beatback
TTITLE4=Relationshit
TTITLE5=Gratitude
TTITLE6=From Dead Eyes
TTITLE7=Children Of War
TTITLE8=E.D.O.C.
TTITLE9=Mankind
EXTD=
EXTT0=
EXTT1=
EXTT2=
EXTT3=
EXTT4=
EXTT5=
EXTT6=
EXTT7=
EXTT8=
EXTT9=
PLAYORDER=
